<svg width="268" height="267" viewBox="0 0 268 267" fill="none" xmlns="http://www.w3.org/2000/svg">
<rect width="44.7188" height="139.268" transform="matrix(0.729932 -0.68352 0.720405 0.693553 60.0547 74.1489)" fill="#F5F3F4"/>
<rect width="47.658" height="96.5285" transform="matrix(-0.736752 -0.676163 0.713395 -0.700763 97.75 232.628)" fill="#F5F3F4"/>
<path d="M47.1301 45.6984L92.7706 43.6416L70.1098 83.196L47.1301 45.6984Z" fill="#F5F3F4"/>
<rect width="44.7188" height="139.268" transform="matrix(0.729932 -0.68352 0.720405 0.693553 60.0547 74.1489)" fill="#F5F3F4"/>
<rect width="47.658" height="96.5285" transform="matrix(-0.736752 -0.676163 0.713395 -0.700763 97.75 232.628)" fill="#F5F3F4"/>
<path d="M47.1301 45.6984L92.7706 43.6416L70.1098 83.196L47.1301 45.6984Z" fill="#F5F3F4"/>
<path d="M52.0885 230.536L74.6662 192.8L97.7466 232.589L52.0885 230.536Z" fill="#F5F3F4"/>
<path d="M31.7465 230.264L63.1129 200.482L97.9219 232.443L31.7465 230.264Z" fill="#F5F3F4"/>
<path d="M29.8339 45.0362L60.4352 74.0916L99.0695 49.3945L92.5667 43.2202H27.1562L29.8339 45.0362Z" fill="#F5F3F4"/>
<rect width="44.7188" height="139.268" transform="matrix(0.729932 -0.68352 0.720405 0.693553 135.031 75.9849)" fill="#F5F3F4"/>
<rect width="47.658" height="96.5285" transform="matrix(-0.736752 -0.676163 0.713395 -0.700763 172.727 234.463)" fill="#F5F3F4"/>
<path d="M122.099 47.5338L167.739 45.477L145.079 85.0315L122.099 47.5338Z" fill="#F5F3F4"/>
<rect width="44.7188" height="139.268" transform="matrix(0.729932 -0.68352 0.720405 0.693553 135.031 75.9849)" fill="#F5F3F4"/>
<rect width="47.658" height="96.5285" transform="matrix(-0.736752 -0.676163 0.713395 -0.700763 172.727 234.463)" fill="#F5F3F4"/>
<path d="M122.099 47.5338L167.739 45.477L145.079 85.0315L122.099 47.5338Z" fill="#F5F3F4"/>
<path d="M127.057 232.371L149.635 194.635L172.715 234.424L127.057 232.371Z" fill="#F5F3F4"/>
<path d="M106.723 232.1L138.089 202.318L172.898 234.279L106.723 232.1Z" fill="#F5F3F4"/>
<path d="M104.81 46.8716L135.412 75.927L174.046 51.2299L167.543 45.0557H102.133L104.81 46.8716Z" fill="#F5F3F4"/>
<path d="M96.0118 235.712L30.6014 233.533L0 264.041H3.44265L63.1153 266.946L96.0118 235.712Z" fill="#E5383B"/>
<path d="M165.246 42.1303H101.365L56.9934 0H61.5836H65.0262H120.874L165.246 42.1303Z" fill="#E5383B"/>
</svg>
